P3
9 16
255
255 255 255
255 255 255
255 255 255
255 255 255
255 255 0
255 255 255
255 255 255
255 255 255
255 255 255
255 255 255
255 255 255
255 255 255
255 255 0
255 255 69
255 255 0
255 255 255
255 255 255
255 255 255
255 255 255
255 255 255
255 255 0
255 255 0
255 255 69
255 255 0
255 255 0
255 255 255
255 255 255
255 255 255
255 255 255
255 255 0
0 0 0
0 0 0
0 0 0
255 255 0
255 255 255
255 255 255
255 255 255
255 255 255
255 255 255
0 0 0
0 0 0
0 0 0
255 255 255
255 255 255
255 255 255
255 255 255
255 255 255
255 255 255
255 255 255
0 0 0
255 255 255
255 255 255
255 255 255
255 255 255
255 255 255
255 255 255
255 255 255
255 255 255
0 0 0
255 255 255
255 255 255
255 255 255
255 255 255
255 255 255
255 255 255
255 255 255
0 0 0
50 50 50
0 0 0
255 255 255
255 255 255
255 255 255
255 255 255
255 255 255
0 0 0
255 255 255
0 0 0
255 255 255
0 0 0
255 255 255
255 255 255
255 255 255
0 0 0
255 255 255
255 255 255
0 0 0
255 255 255
255 255 255
0 0 0
255 255 255
255 255 255
255 255 255
255 255 255
255 255 255
0 0 0
255 255 255
255 255 255
255 255 255
255 255 255
255 255 255
255 255 255
255 255 255
255 255 255
0 0 0
255 255 255
255 255 255
255 255 255
255 255 255
255 255 255
255 255 255
255 255 255
0 0 0
255 255 255
0 0 0
255 255 255
255 255 255
255 255 255
255 255 255
255 255 255
0 0 0
255 255 255
255 255 255
255 255 255
0 0 0
255 255 255
255 255 255
255 255 255
255 255 255
0 0 0
255 255 255
255 255 255
255 255 255
0 0 0
255 255 255
255 255 255
255 255 255
255 255 255
0 0 0
255 255 255
255 255 255
255 255 255
0 0 0
255 255 255
255 255 255
